<?xml version="1.0" standalone="no"?>
<!DOCTYPE svg PUBLIC "-//W3C//DTD SVG 20010904//EN"
 "http://www.w3.org/TR/2001/REC-SVG-20010904/DTD/svg10.dtd">
<svg version="1.0" xmlns="http://www.w3.org/2000/svg"
 width="160.000000pt" height="160.000000pt" viewBox="0 0 160.000000 160.000000"
 preserveAspectRatio="xMidYMid meet">
<metadata>
Created by potrace 1.11, written by Peter Selinger 2001-2013
</metadata>
<g transform="translate(0.000000,160.000000) scale(0.100000,-0.100000)"
fill="#000000" stroke="none">
<path d="M621 1431 c-6 -10 -7 -21 -4 -25 3 -3 0 -6 -7 -6 -7 0 -11 -3 -7 -6
3 -4 -1 -13 -9 -21 -8 -9 -13 -22 -10 -29 3 -8 2 -14 -2 -14 -12 0 -43 -70
-37 -81 4 -5 1 -9 -5 -9 -6 0 -8 -4 -5 -10 3 -5 1 -10 -5 -10 -7 0 -9 -7 -6
-16 4 -10 2 -13 -6 -8 -8 5 -9 2 -5 -9 4 -10 1 -17 -5 -17 -6 0 -9 -3 -5 -6 3
-4 0 -13 -8 -21 -8 -8 -15 -25 -15 -39 0 -13 -4 -24 -9 -24 -8 0 -27 -40 -33
-70 -2 -8 -9 -21 -16 -29 -7 -7 -11 -20 -8 -27 3 -8 1 -14 -5 -14 -6 0 -7 -5
-4 -10 3 -5 2 -10 -3 -10 -12 0 -34 -49 -27 -61 4 -5 1 -9 -6 -9 -7 0 -10 -3
-6 -6 3 -4 0 -13 -8 -21 -8 -8 -15 -26 -15 -40 0 -15 -3 -23 -7 -20 -9 9 -35
-52 -27 -64 3 -5 0 -9 -7 -9 -7 0 -10 -3 -6 -6 3 -4 0 -13 -8 -21 -8 -8 -15
-25 -15 -39 0 -13 -4 -24 -9 -24 -9 0 -38 -74 -30 -76 2 0 -4 -8 -14 -18 -9
-10 -17 -28 -17 -40 0 -13 -7 -29 -15 -36 -8 -7 -15 -23 -15 -36 0 -13 -4 -24
-8 -24 -12 0 -33 -50 -27 -61 4 -5 1 -9 -5 -9 -6 0 -8 -4 -5 -10 3 -5 1 -10
-5 -10 -7 0 -9 -7 -6 -16 3 -8 2 -12 -4 -9 -9 5 -12 -8 -9 -31 0 -4 -5 -10
-11 -14 -7 -4 -14 -19 -15 -34 l-3 -26 91 3 c80 3 92 5 89 20 -2 9 2 17 8 17
5 0 10 11 10 25 0 14 4 25 9 25 5 0 14 14 20 30 5 17 8 30 5 30 -3 0 2 7 11
16 9 9 14 23 11 30 -3 8 -1 14 5 14 6 0 7 5 4 10 -3 6 -1 10 5 10 7 0 9 7 6
16 -4 9 -2 13 5 8 7 -4 10 -1 7 7 -3 8 1 20 9 27 7 8 11 18 7 23 -3 5 2 16 10
25 9 8 16 26 16 39 0 13 5 25 12 27 6 2 12 13 13 24 0 10 9 31 19 46 10 15 15
32 11 38 -3 5 -1 10 6 10 7 0 10 3 6 6 -3 4 0 13 8 20 8 8 12 21 9 29 -4 8 -1
15 6 15 7 0 10 7 6 15 -3 8 -2 15 3 15 8 0 27 40 33 70 2 8 9 21 16 29 7 7 11
20 8 27 -3 8 0 14 6 14 6 0 8 3 5 7 -4 3 0 15 10 25 9 10 13 18 8 18 -4 0 -2
7 5 15 7 9 10 18 7 21 -3 4 1 13 9 21 8 8 12 19 9 24 -4 5 1 9 10 9 8 0 18 -7
20 -15 3 -8 8 -23 12 -32 3 -10 7 -25 9 -33 2 -8 7 -16 13 -18 5 -2 7 -10 4
-18 -3 -8 0 -14 7 -14 6 0 8 -4 5 -10 -3 -5 -1 -10 5 -10 6 0 9 -4 5 -9 -3 -5
-1 -12 5 -16 6 -4 8 -11 5 -16 -4 -5 0 -9 7 -9 13 0 42 60 43 85 0 6 2 12 5
15 22 21 30 64 19 101 -7 21 -16 39 -22 39 -5 0 -7 6 -4 14 3 8 -3 26 -14 40
-11 14 -17 26 -14 26 4 0 2 6 -4 13 -6 8 -9 16 -6 19 7 6 -22 75 -34 83 -6 3
-8 12 -4 20 3 8 0 15 -6 15 -6 0 -11 11 -11 25 0 14 -4 25 -10 25 -5 0 -7 7
-4 15 4 8 1 15 -6 15 -6 0 -8 5 -5 10 3 6 2 10 -4 10 -6 0 -8 7 -5 15 9 21 -3
19 -15 -4z"/>
<path d="M985 1410 c3 -5 2 -10 -3 -10 -6 0 -13 -7 -16 -16 -4 -10 -2 -13 7
-8 6 4 5 -1 -4 -12 -22 -27 -40 -74 -34 -85 4 -5 1 -9 -4 -9 -6 0 -10 -3 -9
-7 1 -5 -3 -18 -10 -31 -7 -12 -10 -27 -7 -32 3 -5 1 -11 -5 -15 -15 -9 -41
-75 -34 -86 3 -5 1 -9 -3 -9 -5 0 -9 -10 -10 -22 -1 -11 -7 -24 -14 -28 -6 -5
-8 -13 -4 -20 6 -9 4 -11 -5 -5 -10 6 -12 4 -7 -8 3 -10 2 -17 -4 -17 -6 0 -7
-4 -4 -10 3 -5 1 -10 -5 -10 -7 0 -10 -6 -7 -14 3 -8 2 -16 -3 -18 -4 -2 -10
-12 -12 -23 -1 -11 -7 -23 -11 -26 -5 -3 -9 -12 -10 -20 -2 -8 -6 -20 -10 -26
-5 -7 -5 -17 -2 -23 3 -5 1 -10 -5 -10 -6 0 -8 -4 -5 -10 3 -5 2 -10 -4 -10
-6 0 -8 -7 -5 -15 4 -8 1 -15 -6 -15 -7 0 -10 -7 -6 -15 3 -8 1 -15 -5 -15 -6
0 -7 -4 -4 -10 3 -5 1 -10 -4 -10 -6 0 -11 -11 -11 -25 0 -14 -5 -25 -11 -25
-6 0 -9 -6 -7 -12 3 -7 -1 -19 -8 -26 -7 -7 -11 -19 -8 -27 4 -8 2 -15 -3 -15
-10 0 -33 -57 -33 -82 0 -9 -5 -18 -10 -20 -6 -2 -12 -13 -13 -26 0 -12 -5
-22 -10 -22 -5 0 -7 -7 -3 -15 3 -8 2 -15 -2 -15 -8 0 -36 -66 -37 -85 0 -5
-4 -13 -8 -16 -4 -3 -9 -16 -10 -27 -1 -12 -4 -22 -8 -22 -4 0 -10 -7 -13 -16
-4 -10 -2 -13 6 -8 13 8 3 -12 -20 -39 -8 -9 -12 -20 -8 -24 4 -4 148 -8 321
-9 l315 -2 -6 31 c-3 17 -9 34 -13 37 -4 3 -11 20 -14 38 -4 18 -13 40 -21 48
-9 8 -13 21 -10 29 4 8 1 15 -5 15 -6 0 -11 11 -11 25 0 14 -4 25 -10 25 -5 0
-7 6 -4 14 3 7 -2 20 -10 29 -8 8 -12 17 -9 21 3 3 -2 15 -11 25 -10 11 -15
25 -11 30 3 6 1 11 -5 11 -6 0 -8 5 -5 10 3 6 2 10 -4 10 -6 0 -8 6 -5 14 3 8
1 17 -5 21 -6 3 -11 15 -11 26 0 10 -4 19 -8 19 -4 0 -9 10 -9 22 -1 13 -7 24
-12 26 -5 2 -7 10 -4 18 3 8 0 14 -6 14 -6 0 -10 5 -9 11 2 6 -3 14 -11 17 -8
2 -11 0 -8 -5 3 -5 0 -20 -7 -34 -7 -13 -11 -30 -8 -37 2 -6 -2 -12 -8 -12 -7
0 -10 -6 -7 -14 3 -7 -1 -23 -8 -34 -8 -10 -11 -22 -8 -26 3 -3 2 -6 -4 -6 -5
0 -10 -7 -10 -15 0 -8 3 -15 7 -15 3 0 6 -10 7 -22 1 -11 7 -24 14 -28 6 -4 9
-12 5 -18 -3 -5 4 -21 15 -36 11 -14 17 -26 13 -26 -5 0 -3 -5 3 -11 6 -6 9
-18 6 -25 -3 -8 0 -14 6 -14 6 0 10 -3 10 -7 -4 -22 3 -43 17 -57 12 -13 13
-17 2 -21 -23 -8 -248 -10 -248 -2 0 4 4 7 8 7 9 0 35 65 37 92 1 9 7 23 14
32 7 9 11 23 7 31 -3 8 -1 15 4 15 11 0 26 48 21 69 -1 7 2 10 8 6 6 -3 12 2
13 12 0 10 2 23 3 28 2 6 4 15 5 20 1 6 2 13 1 18 0 4 3 7 8 7 5 0 12 7 15 16
4 9 2 13 -5 8 -6 -3 -3 5 6 20 10 14 14 26 10 26 -4 0 -2 6 4 13 6 8 8 17 4
20 -3 4 -1 7 6 7 7 0 11 6 8 13 -3 7 1 21 9 31 7 11 11 23 8 27 -3 5 0 9 6 9
6 0 9 4 5 9 -3 5 0 13 6 16 5 4 8 13 5 21 -3 8 -1 14 5 14 6 0 7 5 4 10 -3 6
-1 10 5 10 6 0 9 4 5 9 -3 5 0 13 6 16 5 4 8 13 5 21 -3 8 -2 14 3 14 7 0 19
29 25 60 1 3 5 11 10 18 4 7 6 16 3 19 -3 3 -1 11 6 18 14 15 37 -5 40 -35 1
-11 5 -20 10 -20 4 0 6 -4 2 -9 -7 -12 15 -61 27 -61 5 0 7 -4 4 -9 -7 -11 16
-71 27 -71 4 0 5 -4 2 -10 -3 -5 -1 -10 6 -10 7 0 10 -3 7 -6 -8 -7 21 -94 31
-94 4 0 8 -10 8 -22 1 -13 7 -24 13 -26 5 -2 8 -8 4 -13 -3 -5 -1 -9 5 -9 6 0
8 -7 5 -15 -4 -8 -1 -15 5 -15 6 0 11 -11 11 -24 0 -13 7 -29 15 -36 9 -7 14
-19 11 -27 -3 -7 -1 -13 5 -13 6 0 7 -4 4 -10 -3 -5 -1 -10 4 -10 6 0 11 -8
11 -18 0 -10 3 -22 8 -26 4 -4 7 -11 7 -14 0 -20 29 -92 37 -92 5 0 6 -5 3
-10 -3 -5 -2 -10 4 -10 6 0 8 -7 5 -15 -4 -8 -1 -15 6 -15 6 0 8 -4 5 -10 -3
-5 -1 -10 4 -10 6 0 10 -3 9 -8 -1 -4 3 -17 10 -29 7 -12 11 -26 10 -30 -4
-14 13 -53 23 -53 6 0 8 -4 5 -8 -3 -5 31 -8 75 -8 44 1 75 2 69 4 -5 2 -10 8
-10 13 0 6 5 7 11 3 8 -5 8 -1 0 14 -6 12 -16 24 -21 27 -6 3 -10 17 -10 30 0
13 -4 27 -10 30 -5 3 -10 15 -10 26 0 10 -5 19 -11 19 -5 0 -7 5 -4 10 3 6 2
10 -4 10 -6 0 -8 6 -5 14 3 7 -2 20 -10 29 -8 8 -12 17 -9 21 4 3 1 6 -6 6 -7
0 -10 4 -7 9 7 11 -16 71 -27 71 -4 0 -5 5 -2 10 3 6 2 10 -4 10 -6 0 -8 7 -5
15 4 8 1 15 -6 15 -6 0 -8 4 -5 10 3 6 1 10 -4 10 -6 0 -11 11 -11 25 0 14 -4
25 -8 25 -4 0 -9 10 -9 22 -1 13 -7 24 -13 26 -5 2 -8 8 -4 13 3 5 0 9 -6 9
-7 0 -10 7 -6 15 3 8 1 15 -5 15 -6 0 -7 5 -4 10 3 6 1 10 -5 10 -6 0 -8 5 -5
10 4 6 2 16 -3 23 -6 7 -11 17 -13 22 -9 37 -12 45 -20 45 -5 0 -6 6 -3 14 3
7 -3 22 -13 31 -10 10 -16 19 -14 19 3 1 2 10 -1 21 -2 11 -6 25 -7 30 -1 6
-8 17 -15 25 -8 8 -16 31 -20 51 -4 21 -13 42 -21 49 -8 7 -12 16 -9 21 3 5 0
9 -6 9 -7 0 -10 6 -7 14 3 8 -1 20 -9 27 -8 7 -13 18 -10 25 3 8 0 19 -7 26
-7 7 -14 22 -15 33 -2 11 -8 22 -13 23 -5 2 -7 8 -3 13 3 5 1 9 -5 9 -6 0 -8
7 -5 15 4 8 1 15 -6 15 -6 0 -8 5 -5 10 3 6 2 10 -4 10 -6 0 -7 7 -4 17 5 12
3 14 -7 8 -9 -5 -11 -4 -6 4 11 18 -16 71 -37 71 -10 0 -15 -4 -12 -10z"/>
</g>
</svg>
